<svg width="40" height="40" xmlns="http://www.w3.org/2000/svg"><g fill="none" fill-rule="evenodd"><path d="M39.373 19.686c0 10.872-8.814 19.688-19.687 19.688C8.814 39.373 0 30.557 0 19.686 0 8.815 8.814 0 19.686 0c10.873 0 19.687 8.815 19.687 19.686" fill="#E0007C"/><path d="M28.402 12.313L11.205 23.889l14.527 14.537c6.893-2.22 12.125-8.14 13.361-15.42l-10.69-10.691z" fill="#AA0065"/><path d="M30.858 19.129a6.12 6.12 0 0 0 .09-.682 9.01 9.01 0 0 0-.012-.877c-.274-4.753-5.207-8.542-11.254-8.542-6.22 0-11.265 4.01-11.265 8.96 0 4.549 4.261 8.305 9.782 8.883.338.035.58.339.544.678l-.236 2.115a.613.613 0 0 0 .878.618c4.664-2.25 7.454-4.565 9.12-6.571.301-.365 1.29-1.75 1.492-2.113a7.596 7.596 0 0 0 .861-2.47" fill="#FFF"/><path d="M33.434 19.18c0 7.593-6.155 13.747-13.747 13.747S5.939 26.773 5.939 19.18c0-7.592 6.156-13.747 13.748-13.747s13.747 6.155 13.747 13.747" fill="#FFF"/><path d="M23.401 10.818H15.97a5.159 5.159 0 0 0-5.15 5.152v7.432a5.158 5.158 0 0 0 5.15 5.152h7.432c.82 0 1.604-.188 2.33-.556a5.218 5.218 0 0 0 1.776-1.484.694.694 0 0 0-1.104-.839 3.736 3.736 0 0 1-3.002 1.494H15.97a3.771 3.771 0 0 1-3.766-3.767V15.97a3.77 3.77 0 0 1 3.766-3.766h7.432a3.77 3.77 0 0 1 3.767 3.766v6.73a.692.692 0 1 0 1.385 0v-6.73a5.158 5.158 0 0 0-5.152-5.152" fill="#E0007C"/><path d="M19.686 23.08a3.396 3.396 0 0 1-3.393-3.394 3.395 3.395 0 0 1 3.393-3.393 3.396 3.396 0 0 1 3.393 3.393 3.397 3.397 0 0 1-3.393 3.394m0-8.174a4.786 4.786 0 0 0-4.78 4.78 4.786 4.786 0 0 0 4.78 4.781 4.786 4.786 0 0 0 4.78-4.78 4.786 4.786 0 0 0-4.78-4.78m4.849-.762a.693.693 0 1 1-.693.692c0-.383.31-.692.693-.692" fill="#E0007C"/></g></svg>