<svg width="40" height="40" xmlns="http://www.w3.org/2000/svg"><g fill="none" fill-rule="evenodd"><path d="M39.373 19.686c0 10.872-8.814 19.688-19.687 19.688C8.814 39.373 0 30.557 0 19.686 0 8.815 8.814 0 19.686 0c10.873 0 19.687 8.815 19.687 19.686" fill="#6DC02D"/><path d="M28.402 12.313L11.205 23.889l14.527 14.537c6.893-2.22 12.125-8.14 13.361-15.42l-10.69-10.691z" fill="#559B18"/><path d="M30.858 19.129a6.12 6.12 0 0 0 .09-.682 9.01 9.01 0 0 0-.012-.877c-.274-4.753-5.207-8.542-11.254-8.542-6.22 0-11.265 4.01-11.265 8.96 0 4.549 4.261 8.305 9.782 8.883.338.035.58.339.544.678l-.236 2.115a.613.613 0 0 0 .878.618c4.664-2.25 7.454-4.565 9.12-6.571.301-.365 1.29-1.75 1.492-2.113a7.596 7.596 0 0 0 .861-2.47" fill="#FFF"/><path d="M13.488 19.803v-3.774a.576.576 0 0 0-1.151 0v4.35c0 .319.256.576.576.576h2.305a.576.576 0 0 0 0-1.152h-1.73zm3.555 1.152h-.252a.45.45 0 0 1-.449-.45v-4.603a.45.45 0 0 1 .449-.45h.252a.45.45 0 0 1 .451.45v4.603a.45.45 0 0 1-.451.45m4.657-4.927v2.657s-2.302-3-2.336-3.04a.575.575 0 0 0-.452-.193c-.314.012-.555.287-.555.6v4.327a.577.577 0 0 0 1.154 0v-2.642s2.337 3.028 2.371 3.061c.1.096.238.156.388.157.321.004.581-.28.581-.6v-4.327a.575.575 0 1 0-1.15 0m5.474 0a.578.578 0 0 0-.577-.576h-2.306a.577.577 0 0 0-.576.576v4.351c0 .318.259.576.576.576h2.306a.577.577 0 0 0 0-1.153h-1.73V18.78h1.73a.578.578 0 0 0 0-1.153h-1.73v-1.023h1.73a.577.577 0 0 0 .577-.576" fill="#6FC32E"/></g></svg>