<svg width="40" height="40" xmlns="http://www.w3.org/2000/svg"><g fill="none" fill-rule="evenodd"><path d="M39.373 19.686c0 10.872-8.815 19.688-19.687 19.688C8.814 39.373 0 30.557 0 19.686 0 8.815 8.814 0 19.686 0s19.687 8.815 19.687 19.686" fill="#EF7F01"/><path d="M22.767 10.953l-5.527 19.57 8.492 7.903c6.893-2.222 12.125-8.14 13.361-15.42L22.767 10.953z" fill="#CE6700"/><path d="M24.632 10.932l-2.594-.004c-2.914 0-4.798 1.933-4.798 4.923v2.27h-2.608a.408.408 0 0 0-.408.408v3.289c0 .223.183.407.408.407h2.608v8.298c0 .225.183.407.409.407h3.4a.408.408 0 0 0 .41-.407v-8.298h3.049a.407.407 0 0 0 .407-.407l.003-3.29a.411.411 0 0 0-.41-.407h-3.05v-1.924c0-.925.22-1.395 1.425-1.395l1.748-.001a.406.406 0 0 0 .407-.407V11.34a.408.408 0 0 0-.406-.41" fill="#FFF"/></g></svg>